<?xml version="1.0" encoding="UTF-8"?>
<svg xmlns="http://www.w3.org/2000/svg" style="stroke-dasharray:none; shape-rendering:auto; font-family:'Arial'; text-rendering:auto; fill-opacity:1; color-interpolation:auto; color-rendering:auto; font-size:12; fill:black; stroke:black; image-rendering:auto; stroke-miterlimit:10; stroke-linecap:square; stroke-linejoin:miter; font-style:normal; stroke-width:1; stroke-dashoffset:0; font-weight:normal; stroke-opacity:1;" contentScriptType="text/ecmascript" preserveAspectRatio="xMidYMid meet" zoomAndPan="magnify" version="1.0" contentStyleType="text/css" xml:xlink="http://www.w3.org/1999/xlink" width="964" height="529"><rect x="495" y="420" width="446" height="109" ry="0" rx="0" style="stroke:#000000; fill:#FF9B9B" /><g componentSequence="2"><text x="-474" y="502" transform="rotate(270)" text-anchor="middle" style="font-weight:bold;font-size:10px;stroke:none; fill:#434343"><tspan dy="14" x="-474">Reprovado</tspan></text></g><rect x="0" y="420" width="496" height="109" ry="0" rx="0" style="stroke:#000000; fill:#A7FCC0" /><g componentSequence="1"><text x="-474" y="7" transform="rotate(270)" text-anchor="middle" style="font-weight:bold;font-size:10px;stroke:none; fill:#434343"><tspan dy="14" x="-474">Aprovado</tspan></text></g><rect x="0" y="0" width="941" height="421" ry="0" rx="0" style="stroke:#000000; fill:#8CC6FF" /><g componentSequence="3"><text x="-210" y="7" transform="rotate(270)" text-anchor="middle" style="font-weight:bold;font-size:10px;stroke:none; fill:#434343"><tspan dy="14" x="-210">GSP/GEF</tspan></text></g><g sequence="2"><ellipse cx="29" cy="27" rx="17" ry="17" stroke-width="1" style="fill:url(#linearGradient66FF6696FF96B6FFB6_1779384946);" stroke="336633" /></g><g sequence="8"><ellipse cx="227" cy="481" rx="17" ry="17" stroke-width="3" style="fill:url(#linearGradientFF6666FF9696FFB6B6_1690874179);" stroke="993333" /></g><g sequence="12"><rect x="780" y="270" width="106" height="84" ry="5" rx="5" style="fill:url(#linearGradientF8FBFEEDF5FCDEEDFAD4E7F8E2E5E9_1626810626);" stroke="191970" /></g><g componentSequence="12"><text x="833" y="285" text-anchor="middle" style="font-weight:bold;font-size:10px;stroke:none; fill:#333399"><tspan dy="14" x="833">Comprador -</tspan><tspan dy="14" x="833">Tratar</tspan><tspan dy="14" x="833">Solicitação</tspan></text></g><g sequence="16"><ellipse cx="827" cy="458" rx="17" ry="17" stroke-width="3" style="fill:url(#linearGradientFF6666FF9696FFB6B6_636861304);" stroke="993333" /></g><g sequence="36"><rect x="310" y="250" width="106" height="70" ry="5" rx="5" style="fill:url(#linearGradientF8FBFEEDF5FCDEEDFAD4E7F8E2E5E9_905535846);" stroke="191970" /></g><g componentSequence="36"><text x="363" y="265" text-anchor="middle" style="font-weight:bold;font-size:10px;stroke:none; fill:#333399"><tspan dy="14" x="363">GEF Fiscal -</tspan><tspan dy="14" x="363">Analisar</tspan></text></g><g sequence="55"><rect x="480" y="150" width="106" height="84" ry="5" rx="5" style="fill:url(#linearGradientF8FBFEEDF5FCDEEDFAD4E7F8E2E5E9_337288243);" stroke="191970" /></g><g componentSequence="55"><text x="533" y="165" text-anchor="middle" style="font-weight:bold;font-size:10px;stroke:none; fill:#333399"><tspan dy="14" x="533">Gestor GSP -</tspan><tspan dy="14" x="533">Validar</tspan><tspan dy="14" x="533">Solicitação</tspan></text></g><g sequence="105"><rect x="70" y="220" width="106" height="84" ry="5" rx="5" style="fill:url(#linearGradientF8FBFEEDF5FCDEEDFAD4E7F8E2E5E9_1308366987);" stroke="191970" /></g><g componentSequence="105"><text x="123" y="235" text-anchor="middle" style="font-weight:bold;font-size:10px;stroke:none; fill:#333399"><tspan dy="14" x="123">Comprador -</tspan><tspan dy="14" x="123">Anexar</tspan><tspan dy="14" x="123">Documento</tspan></text></g><g sequence="107"><rect x="480" y="320" width="106" height="70" ry="5" rx="5" style="fill:url(#linearGradientF8FBFEEDF5FCDEEDFAD4E7F8E2E5E9_1171932215);" stroke="191970" /></g><g componentSequence="107"><text x="533" y="335" text-anchor="middle" style="font-weight:bold;font-size:10px;stroke:none; fill:#333399"><tspan dy="14" x="533">GEF Financeiro -</tspan><tspan dy="14" x="533">Aprovar</tspan></text></g><g sequence="114"><polygon points=" 310 70 340 40 370 70 340 100 310 70" style="fill:url(#linearGradientFAFBFCFFFFCC_995553211);" stroke="000000" /></g><g componentSequence="114"><text x="340" y="110" text-anchor="middle" style="font-weight:bold;font-size:10px;stroke:none; fill:#333399"><tspan dy="14" x="340">Avançar</tspan><tspan dy="14" x="340">process</tspan><tspan dy="14" x="340">o</tspan></text></g><g sequence="117"><rect x="440" y="50" width="106" height="84" ry="5" rx="5" style="fill:url(#linearGradientF8FBFEEDF5FCDEEDFAD4E7F8E2E5E9_2070747110);" stroke="191970" /></g><g componentSequence="117"><text x="493" y="65" text-anchor="middle" style="font-weight:bold;font-size:10px;stroke:none; fill:#333399"><tspan dy="14" x="493">Gestor CC -</tspan><tspan dy="14" x="493">Direcionar</tspan><tspan dy="14" x="493">solicitação</tspan></text></g><g sequence="119"><rect x="600" y="50" width="106" height="84" ry="5" rx="5" style="fill:url(#linearGradientF8FBFEEDF5FCDEEDFAD4E7F8E2E5E9_1459122240);" stroke="191970" /></g><g componentSequence="119"><text x="653" y="65" text-anchor="middle" style="font-weight:bold;font-size:10px;stroke:none; fill:#333399"><tspan dy="14" x="653">Ponto focal -</tspan><tspan dy="14" x="653">Serviço a</tspan><tspan dy="14" x="653">contento?</tspan></text></g><g sequence="121"><rect x="780" y="50" width="106" height="84" ry="5" rx="5" style="fill:url(#linearGradientF8FBFEEDF5FCDEEDFAD4E7F8E2E5E9_1100250452);" stroke="191970" /></g><g componentSequence="121"><text x="833" y="65" text-anchor="middle" style="font-weight:bold;font-size:10px;stroke:none; fill:#333399"><tspan dy="14" x="833">Gestor CC -</tspan><tspan dy="14" x="833">Validar</tspan><tspan dy="14" x="833">solicitação</tspan></text></g><rect x="90" y="434" width="105" height="55" ry="5" rx="5" style="stroke:none; fill:#FFFFE0" /><g componentSequence="26"><text x="100" y="447" text-anchor="left" style="font-weight:bold;font-size:10px;stroke:none; fill:#000000"><tspan dy="14" x="100">Aprovado</tspan></text></g><path style="fill:none; stroke-width:1; stroke:#000000;" d="M110.0 434.0 L90.0 434.0 L90.0 489.0 L110.0 489.0" /><rect x="570" y="434" width="105" height="69" ry="5" rx="5" style="stroke:none; fill:#FFFFE0" /><g componentSequence="30"><text x="580" y="457" text-anchor="left" style="font-weight:bold;font-size:10px;stroke:none; fill:#000000"><tspan dy="14" x="580">Reprova e</tspan><tspan dy="14" x="580">Cancela</tspan><tspan dy="14" x="580">Movimento</tspan></text></g><path style="fill:none; stroke-width:1; stroke:#000000;" d="M590.0 434.0 L570.0 434.0 L570.0 503.0 L590.0 503.0" /><g sequence="132"><rect x="130" y="60" width="106" height="70" ry="5" rx="5" style="fill:url(#linearGradientF8FBFEEDF5FCDEEDFAD4E7F8E2E5E9_1295219178);" stroke="191970" /></g><g componentSequence="132"><text x="183" y="84" text-anchor="middle" style="font-weight:bold;font-size:10px;stroke:none; fill:#333399"><tspan dy="14" x="183">Processamento</tspan></text></g><g componentSequence="37"><text x="496" y="284" style="font-size:10px;font-weight:none;stroke:none; fill:#333399" text-anchor="left" /></g><g componentSequence="57"><text x="81" y="132" style="font-size:10px;font-weight:none;stroke:none; fill:#333399" text-anchor="left" /></g><g componentSequence="97"><text x="693" y="252" style="font-size:10px;font-weight:none;stroke:none; fill:#333399" text-anchor="left" /></g><g componentSequence="108"><text x="458" y="320" style="font-size:10px;font-weight:none;stroke:none; fill:#333399" text-anchor="left" /></g><g componentSequence="109"><text x="372" y="426" style="font-size:10px;font-weight:none;stroke:none; fill:#333399" text-anchor="left" /></g><g componentSequence="110"><text x="402" y="192" style="font-size:10px;font-weight:none;stroke:none; fill:#333399" text-anchor="left" /></g><g componentSequence="111"><text x="413" y="355" style="font-size:10px;font-weight:none;stroke:none; fill:#333399" text-anchor="left" /></g><g componentSequence="112"><text x="543" y="277" style="font-size:10px;font-weight:none;stroke:none; fill:#333399" text-anchor="left" /></g><g componentSequence="116"><text x="402" y="191" style="font-size:10px;font-weight:none;stroke:none; fill:#333399" text-anchor="left"><tspan dy="14" x="402">Serviço? Não</tspan></text></g><g componentSequence="118"><text x="415" y="95" style="font-size:10px;font-weight:none;stroke:none; fill:#333399" text-anchor="left"><tspan dy="14" x="415">Serviço? Sim</tspan></text></g><g componentSequence="120"><text x="583" y="92" style="font-size:10px;font-weight:none;stroke:none; fill:#333399" text-anchor="left" /></g><g componentSequence="122"><text x="753" y="92" style="font-size:10px;font-weight:none;stroke:none; fill:#333399" text-anchor="left" /></g><g componentSequence="123"><text x="750" y="192" style="font-size:10px;font-weight:none;stroke:none; fill:#333399" text-anchor="left" /></g><g componentSequence="125"><text x="866" y="19" style="font-size:10px;font-weight:none;stroke:none; fill:#333399" text-anchor="left" /></g><g componentSequence="126"><text x="926" y="38" style="font-size:10px;font-weight:none;stroke:none; fill:#333399" text-anchor="left" /></g><g componentSequence="127"><text x="931" y="201" style="font-size:10px;font-weight:none;stroke:none; fill:#333399" text-anchor="left" /></g><g componentSequence="128"><text x="932" y="12" style="font-size:10px;font-weight:none;stroke:none; fill:#333399" text-anchor="left" /></g><g componentSequence="131"><text x="840" y="397" style="font-size:10px;font-weight:none;stroke:none; fill:#333399" text-anchor="left" /></g><g componentSequence="27"><text x="212" y="475" style="font-size:10px;font-weight:none;stroke:none; fill:#333399" text-anchor="left" /></g><g componentSequence="31"><text x="752" y="462" style="font-size:10px;font-weight:none;stroke:none; fill:#333399" text-anchor="left" /></g><g componentSequence="133"><text x="164" y="175" style="font-size:10px;font-weight:none;stroke:none; fill:#333399" text-anchor="left" /></g><g componentSequence="134"><text x="283" y="97" style="font-size:10px;font-weight:none;stroke:none; fill:#333399" text-anchor="left" /></g><g componentSequence="135"><text x="278" y="17" style="font-size:10px;font-weight:none;stroke:none; fill:#333399" text-anchor="left" /></g><g componentSequence="136"><text x="267" y="192" style="font-size:10px;font-weight:none;stroke:none; fill:#333399" text-anchor="left" /></g><path style="fill:none; stroke:#000000;stroke-width:1" d="M35.0 43.0 L106.0 219.0" /><polygon style="fill:#000000; stroke:#000000;" points=" 107 208 106 219 98 212 103 212" /><path style="fill:none; stroke:#000000;stroke-width:1" d="M479.0 377.0 L243.0 475.0" /><polygon style="fill:#000000; stroke:#000000;" points=" 254 476 243 475 250 467 250 472" /><path style="fill:none; stroke:#000000;stroke-dasharray:2" d="M195.0 473.0 L210.0 477.0" /><path style="fill:none; stroke:#000000;stroke-width:1" d="M832.0 354.0 L832.0 401.0 L963.0 401.0 L963.0 12.0 L340.0 12.0 L340.0 39.0" /><polygon style="fill:#000000; stroke:#000000;" points=" 345 29 340 39 335 29 340 31" /><path style="fill:none; stroke:#000000;stroke-width:1" d="M831.0 354.0 L827.0 441.0" /><polygon style="fill:#000000; stroke:#000000;" points=" 832 431 827 441 822 431 827 433" /><path style="fill:none; stroke:#000000;stroke-width:1" d="M586.0 213.0 L779.0 290.0" /><polygon style="fill:#000000; stroke:#000000;" points=" 772 282 779 290 768 291 772 287" /><path style="fill:none; stroke:#000000;stroke-width:1" d="M493.0 49.0 L493.0 19.0 L924.0 19.0 L924.0 305.0 L886.0 308.0" /><polygon style="fill:#000000; stroke:#000000;" points=" 896 312 886 308 896 302 894 307" /><path style="fill:none; stroke:#000000;stroke-width:1" d="M657.0 49.0 L660.0 20.0 L916.0 20.0 L916.0 164.0 L916.0 311.0 L886.0 311.0" /><polygon style="fill:#000000; stroke:#000000;" points=" 896 316 886 311 896 306 894 311" /><path style="fill:none; stroke:#000000;stroke-width:1" d="M886.0 91.0 L921.0 91.0 L921.0 311.0 L886.0 311.0" /><polygon style="fill:#000000; stroke:#000000;" points=" 896 316 886 311 896 306 894 311" /><path style="fill:none; stroke:#000000;stroke-dasharray:2" d="M675.0 465.0 L810.0 458.0" /><path style="fill:none; stroke:#000000;stroke-width:1" d="M416.0 307.0 L479.0 333.0" /><polygon style="fill:#000000; stroke:#000000;" points=" 472 325 479 333 468 334 472 330" /><path style="fill:none; stroke:#000000;stroke-width:1" d="M362.0 249.0 L362.0 192.0 L479.0 192.0" /><polygon style="fill:#000000; stroke:#000000;" points=" 469 187 479 192 469 197 471 192" /><path style="fill:none; stroke:#000000;stroke-width:1" d="M519.0 234.0 L503.0 284.0 L416.0 284.0" /><polygon style="fill:#000000; stroke:#000000;" points=" 426 289 416 284 426 279 424 284" /><path style="fill:none; stroke:#000000;stroke-width:1" d="M479.0 355.0 L362.0 355.0 L362.0 320.0" /><polygon style="fill:#000000; stroke:#000000;" points=" 357 330 362 320 367 330 362 328" /><path style="fill:none; stroke:#000000;stroke-width:1" d="M533.0 319.0 L533.0 234.0" /><polygon style="fill:#000000; stroke:#000000;" points=" 528 244 533 234 538 244 533 242" /><path style="fill:none; stroke:#000000;stroke-width:1" d="M340.0 156.0 L341.0 191.0 L479.0 191.0" /><polygon style="fill:#000000; stroke:#000000;" points=" 469 186 479 191 469 196 471 191" /><path style="fill:none; stroke:#000000;stroke-width:1" d="M834.0 134.0 L836.0 192.0 L586.0 192.0" /><polygon style="fill:#000000; stroke:#000000;" points=" 596 197 586 192 596 187 594 192" /><path style="fill:none; stroke:#009600;stroke-width:1" d="M138.0 219.0 L170.0 130.0" /><polygon style="fill:#009600; stroke:#009600;" points=" 162 138 170 130 171 141 167 138" /><path style="fill:none; stroke:#000000;stroke-width:1" d="M176.0 234.0 L269.0 186.0 L216.0 130.0" /><polygon style="fill:#000000; stroke:#000000;" points=" 219 141 216 130 227 134 221 136" /><path style="fill:none; stroke:#000000;stroke-width:1" d="M370.0 96.0 L439.0 94.0" /><polygon style="fill:#000000; stroke:#000000;" points=" 429 89 439 94 429 99 431 94" /><path style="fill:none; stroke:#009600;stroke-width:1" d="M236.0 96.0 L309.0 97.0" /><polygon style="fill:#009600; stroke:#009600;" points=" 299 92 309 97 299 102 301 97" /><path style="fill:none; stroke:#000000;stroke-width:1" d="M222.0 59.0 L268.0 17.0 L309.0 63.0" /><polygon style="fill:#000000; stroke:#000000;" points=" 306 52 309 63 299 59 304 57" /><path style="fill:none; stroke:#000000;stroke-width:1" d="M546.0 92.0 L599.0 92.0" /><polygon style="fill:#000000; stroke:#000000;" points=" 589 87 599 92 589 97 591 92" /><path style="fill:none; stroke:#000000;stroke-width:1" d="M706.0 92.0 L779.0 92.0" /><polygon style="fill:#000000; stroke:#000000;" points=" 769 87 779 92 769 97 771 92" /><defs><linearGradient xmlns:xlink="http://www.w3.org/1999/xlink" xlink:href="#linearGradient66FF6696FF96B6FFB6" id="linearGradient66FF6696FF96B6FFB6_1779384946" x1="0" y1="10.0" x2="0" y2="45.0" gradientUnits="userSpaceOnUse" xlink:type="simple" xlink:actuate="onLoad" xlink:show="other" /><linearGradient id="linearGradient66FF6696FF96B6FFB6"><stop style="stop-color:#66FF66;stop-opacity:1;" offset="0.0" id="stop66FF66" /><stop style="stop-color:#96FF96;stop-opacity:1;" offset="0.5" id="stop96FF96" /><stop style="stop-color:#B6FFB6;stop-opacity:1;" offset="1.0" id="stopB6FFB6" /></linearGradient><linearGradient xmlns:xlink="http://www.w3.org/1999/xlink" xlink:href="#linearGradientFF6666FF9696FFB6B6" id="linearGradientFF6666FF9696FFB6B6_1690874179" x1="0" y1="464.0" x2="0" y2="499.0" gradientUnits="userSpaceOnUse" xlink:type="simple" xlink:actuate="onLoad" xlink:show="other" /><linearGradient id="linearGradientFF6666FF9696FFB6B6"><stop style="stop-color:#FF6666;stop-opacity:1;" offset="0.0" id="stopFF6666" /><stop style="stop-color:#FF9696;stop-opacity:1;" offset="0.5" id="stopFF9696" /><stop style="stop-color:#FFB6B6;stop-opacity:1;" offset="1.0" id="stopFFB6B6" /></linearGradient><linearGradient xmlns:xlink="http://www.w3.org/1999/xlink" xlink:href="#linearGradientF8FBFEEDF5FCDEEDFAD4E7F8E2E5E9" id="linearGradientF8FBFEEDF5FCDEEDFAD4E7F8E2E5E9_1626810626" x1="0" y1="270.0" x2="0" y2="376.0" gradientUnits="userSpaceOnUse" xlink:type="simple" xlink:actuate="onLoad" xlink:show="other" /><linearGradient id="linearGradientF8FBFEEDF5FCDEEDFAD4E7F8E2E5E9"><stop style="stop-color:#F8FBFE;stop-opacity:1;" offset="0.0" id="stopF8FBFE" /><stop style="stop-color:#EDF5FC;stop-opacity:1;" offset="0.25" id="stopEDF5FC" /><stop style="stop-color:#DEEDFA;stop-opacity:1;" offset="0.5" id="stopDEEDFA" /><stop style="stop-color:#D4E7F8;stop-opacity:1;" offset="0.75" id="stopD4E7F8" /><stop style="stop-color:#E2E5E9;stop-opacity:1;" offset="1.0" id="stopE2E5E9" /></linearGradient><linearGradient xmlns:xlink="http://www.w3.org/1999/xlink" xlink:href="#linearGradientFF6666FF9696FFB6B6" id="linearGradientFF6666FF9696FFB6B6_636861304" x1="0" y1="441.0" x2="0" y2="476.0" gradientUnits="userSpaceOnUse" xlink:type="simple" xlink:actuate="onLoad" xlink:show="other" /><linearGradient xmlns:xlink="http://www.w3.org/1999/xlink" xlink:href="#linearGradientF8FBFEEDF5FCDEEDFAD4E7F8E2E5E9" id="linearGradientF8FBFEEDF5FCDEEDFAD4E7F8E2E5E9_905535846" x1="0" y1="250.0" x2="0" y2="356.0" gradientUnits="userSpaceOnUse" xlink:type="simple" xlink:actuate="onLoad" xlink:show="other" /><linearGradient xmlns:xlink="http://www.w3.org/1999/xlink" xlink:href="#linearGradientF8FBFEEDF5FCDEEDFAD4E7F8E2E5E9" id="linearGradientF8FBFEEDF5FCDEEDFAD4E7F8E2E5E9_337288243" x1="0" y1="150.0" x2="0" y2="256.0" gradientUnits="userSpaceOnUse" xlink:type="simple" xlink:actuate="onLoad" xlink:show="other" /><linearGradient xmlns:xlink="http://www.w3.org/1999/xlink" xlink:href="#linearGradientF8FBFEEDF5FCDEEDFAD4E7F8E2E5E9" id="linearGradientF8FBFEEDF5FCDEEDFAD4E7F8E2E5E9_1308366987" x1="0" y1="220.0" x2="0" y2="326.0" gradientUnits="userSpaceOnUse" xlink:type="simple" xlink:actuate="onLoad" xlink:show="other" /><linearGradient xmlns:xlink="http://www.w3.org/1999/xlink" xlink:href="#linearGradientF8FBFEEDF5FCDEEDFAD4E7F8E2E5E9" id="linearGradientF8FBFEEDF5FCDEEDFAD4E7F8E2E5E9_1171932215" x1="0" y1="320.0" x2="0" y2="426.0" gradientUnits="userSpaceOnUse" xlink:type="simple" xlink:actuate="onLoad" xlink:show="other" /><linearGradient xmlns:xlink="http://www.w3.org/1999/xlink" xlink:href="#linearGradientFAFBFCFFFFCC" id="linearGradientFAFBFCFFFFCC_995553211" x1="0" y1="40.0" x2="0" y2="100.0" gradientUnits="userSpaceOnUse" xlink:type="simple" xlink:actuate="onLoad" xlink:show="other" /><linearGradient id="linearGradientFAFBFCFFFFCC"><stop style="stop-color:#FAFBFC;stop-opacity:1;" offset="0.0" id="stopFAFBFC" /><stop style="stop-color:#FFFFCC;stop-opacity:1;" offset="1.0" id="stopFFFFCC" /></linearGradient><linearGradient xmlns:xlink="http://www.w3.org/1999/xlink" xlink:href="#linearGradientF8FBFEEDF5FCDEEDFAD4E7F8E2E5E9" id="linearGradientF8FBFEEDF5FCDEEDFAD4E7F8E2E5E9_2070747110" x1="0" y1="50.0" x2="0" y2="156.0" gradientUnits="userSpaceOnUse" xlink:type="simple" xlink:actuate="onLoad" xlink:show="other" /><linearGradient xmlns:xlink="http://www.w3.org/1999/xlink" xlink:href="#linearGradientF8FBFEEDF5FCDEEDFAD4E7F8E2E5E9" id="linearGradientF8FBFEEDF5FCDEEDFAD4E7F8E2E5E9_1459122240" x1="0" y1="50.0" x2="0" y2="156.0" gradientUnits="userSpaceOnUse" xlink:type="simple" xlink:actuate="onLoad" xlink:show="other" /><linearGradient xmlns:xlink="http://www.w3.org/1999/xlink" xlink:href="#linearGradientF8FBFEEDF5FCDEEDFAD4E7F8E2E5E9" id="linearGradientF8FBFEEDF5FCDEEDFAD4E7F8E2E5E9_1100250452" x1="0" y1="50.0" x2="0" y2="156.0" gradientUnits="userSpaceOnUse" xlink:type="simple" xlink:actuate="onLoad" xlink:show="other" /><linearGradient xmlns:xlink="http://www.w3.org/1999/xlink" xlink:href="#linearGradientF8FBFEEDF5FCDEEDFAD4E7F8E2E5E9" id="linearGradientF8FBFEEDF5FCDEEDFAD4E7F8E2E5E9_1295219178" x1="0" y1="60.0" x2="0" y2="166.0" gradientUnits="userSpaceOnUse" xlink:type="simple" xlink:actuate="onLoad" xlink:show="other" /></defs></svg>
