<?xml version="1.0" encoding="UTF-8"?>
<svg xmlns="http://www.w3.org/2000/svg" style="stroke-dasharray:none; shape-rendering:auto; font-family:'Arial'; text-rendering:auto; fill-opacity:1; color-interpolation:auto; color-rendering:auto; font-size:12; fill:black; stroke:black; image-rendering:auto; stroke-miterlimit:10; stroke-linecap:square; stroke-linejoin:miter; font-style:normal; stroke-width:1; stroke-dashoffset:0; font-weight:normal; stroke-opacity:1;" contentScriptType="text/ecmascript" preserveAspectRatio="xMidYMid meet" zoomAndPan="magnify" version="1.0" contentStyleType="text/css" xml:xlink="http://www.w3.org/1999/xlink" width="941" height="375"><rect x="495" y="266" width="446" height="109" ry="0" rx="0" style="stroke:#000000; fill:#FF9B9B" /><g componentSequence="1"><text x="-320" y="502" transform="rotate(270)" text-anchor="middle" style="font-weight:bold;font-size:10px;stroke:none; fill:#434343"><tspan dy="14" x="-320">Reprovado</tspan></text></g><rect x="0" y="266" width="496" height="109" ry="0" rx="0" style="stroke:#000000; fill:#A7FCC0" /><g componentSequence="2"><text x="-320" y="7" transform="rotate(270)" text-anchor="middle" style="font-weight:bold;font-size:10px;stroke:none; fill:#434343"><tspan dy="14" x="-320">Aprovado</tspan></text></g><rect x="0" y="0" width="941" height="267" ry="0" rx="0" style="stroke:#000000; fill:#8CC6FF" /><g componentSequence="3"><text x="-133" y="7" transform="rotate(270)" text-anchor="middle" style="font-weight:bold;font-size:10px;stroke:none; fill:#434343"><tspan dy="14" x="-133">GSP/GEF</tspan></text></g><g sequence="2"><ellipse cx="29" cy="17" rx="17" ry="17" stroke-width="1" style="fill:url(#linearGradient66FF6696FF96B6FFB6_943783405);" stroke="336633" /></g><g sequence="8"><ellipse cx="227" cy="327" rx="17" ry="17" stroke-width="3" style="fill:url(#linearGradientFF6666FF9696FFB6B6_914818197);" stroke="993333" /></g><g sequence="12"><rect x="780" y="52" width="106" height="84" ry="5" rx="5" style="fill:url(#linearGradientF8FBFEEDF5FCDEEDFAD4E7F8E2E5E9_850957981);" stroke="191970" /></g><g componentSequence="12"><text x="833" y="67" text-anchor="middle" style="font-weight:bold;font-size:10px;stroke:none; fill:#333399"><tspan dy="14" x="833">Comprador -</tspan><tspan dy="14" x="833">Tratar</tspan><tspan dy="14" x="833">Solicitação</tspan></text></g><g sequence="16"><ellipse cx="837" cy="304" rx="17" ry="17" stroke-width="3" style="fill:url(#linearGradientFF6666FF9696FFB6B6_2008682158);" stroke="993333" /></g><g sequence="36"><rect x="250" y="120" width="106" height="70" ry="5" rx="5" style="fill:url(#linearGradientF8FBFEEDF5FCDEEDFAD4E7F8E2E5E9_1210722849);" stroke="191970" /></g><g componentSequence="36"><text x="303" y="135" text-anchor="middle" style="font-weight:bold;font-size:10px;stroke:none; fill:#333399"><tspan dy="14" x="303">GEF - Analisar</tspan><tspan dy="14" x="303">Fiscal</tspan></text></g><g sequence="55"><rect x="480" y="51" width="106" height="84" ry="5" rx="5" style="fill:url(#linearGradientF8FBFEEDF5FCDEEDFAD4E7F8E2E5E9_1174879261);" stroke="191970" /></g><g componentSequence="55"><text x="533" y="66" text-anchor="middle" style="font-weight:bold;font-size:10px;stroke:none; fill:#333399"><tspan dy="14" x="533">Gestor GSP -</tspan><tspan dy="14" x="533">Validar</tspan><tspan dy="14" x="533">Solicitação</tspan></text></g><g sequence="105"><rect x="108" y="36" width="106" height="84" ry="5" rx="5" style="fill:url(#linearGradientF8FBFEEDF5FCDEEDFAD4E7F8E2E5E9_813516350);" stroke="191970" /></g><g componentSequence="105"><text x="161" y="51" text-anchor="middle" style="font-weight:bold;font-size:10px;stroke:none; fill:#333399"><tspan dy="14" x="161">Solicitante -</tspan><tspan dy="14" x="161">Anexar</tspan><tspan dy="14" x="161">Documento</tspan></text></g><g sequence="107"><rect x="480" y="190" width="106" height="70" ry="5" rx="5" style="fill:url(#linearGradientF8FBFEEDF5FCDEEDFAD4E7F8E2E5E9_395702753);" stroke="191970" /></g><g componentSequence="107"><text x="533" y="205" text-anchor="middle" style="font-weight:bold;font-size:10px;stroke:none; fill:#333399"><tspan dy="14" x="533">GEF - Analisar</tspan><tspan dy="14" x="533">Financeiro</tspan></text></g><rect x="90" y="280" width="105" height="55" ry="5" rx="5" style="stroke:none; fill:#FFFFE0" /><g componentSequence="26"><text x="100" y="293" text-anchor="left" style="font-weight:bold;font-size:10px;stroke:none; fill:#000000"><tspan dy="14" x="100">Aprovado</tspan></text></g><path style="fill:none; stroke-width:1; stroke:#000000;" d="M110.0 280.0 L90.0 280.0 L90.0 335.0 L110.0 335.0" /><rect x="570" y="280" width="105" height="69" ry="5" rx="5" style="stroke:none; fill:#FFFFE0" /><g componentSequence="30"><text x="580" y="303" text-anchor="left" style="font-weight:bold;font-size:10px;stroke:none; fill:#000000"><tspan dy="14" x="580">Reprova e</tspan><tspan dy="14" x="580">Cancela</tspan><tspan dy="14" x="580">Movimento</tspan></text></g><path style="fill:none; stroke-width:1; stroke:#000000;" d="M590.0 280.0 L570.0 280.0 L570.0 349.0 L590.0 349.0" /><rect x="72" y="135" width="105" height="69" ry="5" rx="5" style="stroke:none; fill:#FFFFE0" /><g componentSequence="79"><text x="82" y="158" text-anchor="left" style="font-weight:bold;font-size:10px;stroke:none; fill:#000000"><tspan dy="14" x="82">Usuário do</tspan><tspan dy="14" x="82">movimento do</tspan><tspan dy="14" x="82">RM</tspan></text></g><path style="fill:none; stroke-width:1; stroke:#000000;" d="M92.0 135.0 L72.0 135.0 L72.0 204.0 L92.0 204.0" /><rect x="630" y="120" width="105" height="69" ry="5" rx="5" style="stroke:none; fill:#FFFFE0" /><g componentSequence="83"><text x="640" y="143" text-anchor="left" style="font-weight:bold;font-size:10px;stroke:none; fill:#000000"><tspan dy="14" x="640">Autorizador do</tspan><tspan dy="14" x="640">usuário do</tspan><tspan dy="14" x="640">movimento</tspan></text></g><path style="fill:none; stroke-width:1; stroke:#000000;" d="M650.0 120.0 L630.0 120.0 L630.0 189.0 L650.0 189.0" /><g componentSequence="37"><text x="431" y="155" style="font-size:10px;font-weight:none;stroke:none; fill:#333399" text-anchor="left" /></g><g componentSequence="50"><text x="694" y="22" style="font-size:10px;font-weight:none;stroke:none; fill:#333399" text-anchor="left" /></g><g componentSequence="57"><text x="87" y="39" style="font-size:10px;font-weight:none;stroke:none; fill:#333399" text-anchor="left" /></g><g componentSequence="58"><text x="357" y="85" style="font-size:10px;font-weight:none;stroke:none; fill:#333399" text-anchor="left" /></g><g componentSequence="59"><text x="362" y="23" style="font-size:10px;font-weight:none;stroke:none; fill:#333399" text-anchor="left" /></g><g componentSequence="97"><text x="693" y="93" style="font-size:10px;font-weight:none;stroke:none; fill:#333399" text-anchor="left" /></g><g componentSequence="108"><text x="428" y="190" style="font-size:10px;font-weight:none;stroke:none; fill:#333399" text-anchor="left" /></g><g componentSequence="109"><text x="372" y="282" style="font-size:10px;font-weight:none;stroke:none; fill:#333399" text-anchor="left" /></g><g componentSequence="110"><text x="427" y="123" style="font-size:10px;font-weight:none;stroke:none; fill:#333399" text-anchor="left" /></g><g componentSequence="111"><text x="382" y="228" style="font-size:10px;font-weight:none;stroke:none; fill:#333399" text-anchor="left" /></g><g componentSequence="112"><text x="543" y="162" style="font-size:10px;font-weight:none;stroke:none; fill:#333399" text-anchor="left" /></g><g componentSequence="113"><text x="845" y="211" style="font-size:10px;font-weight:none;stroke:none; fill:#333399" text-anchor="left" /></g><g componentSequence="27"><text x="212" y="321" style="font-size:10px;font-weight:none;stroke:none; fill:#333399" text-anchor="left" /></g><g componentSequence="31"><text x="757" y="309" style="font-size:10px;font-weight:none;stroke:none; fill:#333399" text-anchor="left" /></g><g componentSequence="80"><text x="151" y="127" style="font-size:10px;font-weight:none;stroke:none; fill:#333399" text-anchor="left" /></g><g componentSequence="84"><text x="618" y="123" style="font-size:10px;font-weight:none;stroke:none; fill:#333399" text-anchor="left" /></g><path style="fill:none; stroke:#000000;stroke-width:1" d="M45.0 24.0 L107.0 53.0" /><polygon style="fill:#000000; stroke:#000000;" points=" 100 44 107 53 96 53 100 50" /><path style="fill:none; stroke:#000000;stroke-width:1" d="M479.0 242.0 L244.0 322.0" /><polygon style="fill:#000000; stroke:#000000;" points=" 255 324 244 322 252 314 252 319" /><path style="fill:none; stroke:#000000;stroke-dasharray:2" d="M195.0 319.0 L210.0 323.0" /><path style="fill:none; stroke:#000000;stroke-width:1" d="M833.0 51.0 L834.0 22.0 L532.0 22.0 L532.0 50.0" /><polygon style="fill:#000000; stroke:#000000;" points=" 537 40 532 50 527 40 532 42" /><path style="fill:none; stroke:#000000;stroke-width:1" d="M833.0 136.0 L837.0 287.0" /><polygon style="fill:#000000; stroke:#000000;" points=" 842 277 837 287 832 277 837 279" /><path style="fill:none; stroke:#000000;stroke-width:1" d="M586.0 93.0 L779.0 93.0" /><polygon style="fill:#000000; stroke:#000000;" points=" 769 88 779 93 769 98 771 93" /><path style="fill:none; stroke:#000000;stroke-dasharray:2" d="M675.0 312.0 L820.0 304.0" /><path style="fill:none; stroke:#000000;stroke-width:1" d="M356.0 171.0 L479.0 208.0" /><polygon style="fill:#000000; stroke:#000000;" points=" 471 200 479 208 468 210 471 206" /><path style="fill:none; stroke:#000000;stroke-width:1" d="M356.0 140.0 L403.0 127.0 L479.0 107.0" /><polygon style="fill:#000000; stroke:#000000;" points=" 468 105 479 107 471 114 471 109" /><path style="fill:none; stroke:#000000;stroke-width:1" d="M479.0 123.0 L416.0 158.0 L356.0 156.0" /><polygon style="fill:#000000; stroke:#000000;" points=" 366 161 356 156 366 151 364 156" /><path style="fill:none; stroke:#000000;stroke-width:1" d="M479.0 226.0 L303.0 229.0 L303.0 190.0" /><polygon style="fill:#000000; stroke:#000000;" points=" 298 200 303 190 308 200 303 198" /><path style="fill:none; stroke:#009600;stroke-width:1" d="M214.0 80.0 L479.0 90.0" /><polygon style="fill:#009600; stroke:#009600;" points=" 469 85 479 90 469 95 471 90" /><path style="fill:none; stroke:#000000;stroke-width:1" d="M159.0 35.0 L159.0 23.0 L244.0 23.0 L529.0 23.0 L530.0 50.0" /><polygon style="fill:#000000; stroke:#000000;" points=" 535 40 530 50 525 40 530 42" /><path style="fill:none; stroke:#000000;stroke-width:1" d="M533.0 189.0 L533.0 135.0" /><polygon style="fill:#000000; stroke:#000000;" points=" 528 145 533 135 538 145 533 143" /><path style="fill:none; stroke:#000000;stroke-dasharray:2" d="M629.0 132.0 L586.0 115.0" /><path style="fill:none; stroke:#000000;stroke-dasharray:2" d="M138.0 134.0 L144.0 120.0" /><defs><linearGradient xmlns:xlink="http://www.w3.org/1999/xlink" xlink:href="#linearGradient66FF6696FF96B6FFB6" id="linearGradient66FF6696FF96B6FFB6_943783405" x1="0" y1="0.0" x2="0" y2="35.0" gradientUnits="userSpaceOnUse" xlink:type="simple" xlink:actuate="onLoad" xlink:show="other" /><linearGradient id="linearGradient66FF6696FF96B6FFB6"><stop style="stop-color:#66FF66;stop-opacity:1;" offset="0.0" id="stop66FF66" /><stop style="stop-color:#96FF96;stop-opacity:1;" offset="0.5" id="stop96FF96" /><stop style="stop-color:#B6FFB6;stop-opacity:1;" offset="1.0" id="stopB6FFB6" /></linearGradient><linearGradient xmlns:xlink="http://www.w3.org/1999/xlink" xlink:href="#linearGradientFF6666FF9696FFB6B6" id="linearGradientFF6666FF9696FFB6B6_914818197" x1="0" y1="310.0" x2="0" y2="345.0" gradientUnits="userSpaceOnUse" xlink:type="simple" xlink:actuate="onLoad" xlink:show="other" /><linearGradient id="linearGradientFF6666FF9696FFB6B6"><stop style="stop-color:#FF6666;stop-opacity:1;" offset="0.0" id="stopFF6666" /><stop style="stop-color:#FF9696;stop-opacity:1;" offset="0.5" id="stopFF9696" /><stop style="stop-color:#FFB6B6;stop-opacity:1;" offset="1.0" id="stopFFB6B6" /></linearGradient><linearGradient xmlns:xlink="http://www.w3.org/1999/xlink" xlink:href="#linearGradientF8FBFEEDF5FCDEEDFAD4E7F8E2E5E9" id="linearGradientF8FBFEEDF5FCDEEDFAD4E7F8E2E5E9_850957981" x1="0" y1="52.0" x2="0" y2="158.0" gradientUnits="userSpaceOnUse" xlink:type="simple" xlink:actuate="onLoad" xlink:show="other" /><linearGradient id="linearGradientF8FBFEEDF5FCDEEDFAD4E7F8E2E5E9"><stop style="stop-color:#F8FBFE;stop-opacity:1;" offset="0.0" id="stopF8FBFE" /><stop style="stop-color:#EDF5FC;stop-opacity:1;" offset="0.25" id="stopEDF5FC" /><stop style="stop-color:#DEEDFA;stop-opacity:1;" offset="0.5" id="stopDEEDFA" /><stop style="stop-color:#D4E7F8;stop-opacity:1;" offset="0.75" id="stopD4E7F8" /><stop style="stop-color:#E2E5E9;stop-opacity:1;" offset="1.0" id="stopE2E5E9" /></linearGradient><linearGradient xmlns:xlink="http://www.w3.org/1999/xlink" xlink:href="#linearGradientFF6666FF9696FFB6B6" id="linearGradientFF6666FF9696FFB6B6_2008682158" x1="0" y1="287.0" x2="0" y2="322.0" gradientUnits="userSpaceOnUse" xlink:type="simple" xlink:actuate="onLoad" xlink:show="other" /><linearGradient xmlns:xlink="http://www.w3.org/1999/xlink" xlink:href="#linearGradientF8FBFEEDF5FCDEEDFAD4E7F8E2E5E9" id="linearGradientF8FBFEEDF5FCDEEDFAD4E7F8E2E5E9_1210722849" x1="0" y1="120.0" x2="0" y2="226.0" gradientUnits="userSpaceOnUse" xlink:type="simple" xlink:actuate="onLoad" xlink:show="other" /><linearGradient xmlns:xlink="http://www.w3.org/1999/xlink" xlink:href="#linearGradientF8FBFEEDF5FCDEEDFAD4E7F8E2E5E9" id="linearGradientF8FBFEEDF5FCDEEDFAD4E7F8E2E5E9_1174879261" x1="0" y1="51.0" x2="0" y2="157.0" gradientUnits="userSpaceOnUse" xlink:type="simple" xlink:actuate="onLoad" xlink:show="other" /><linearGradient xmlns:xlink="http://www.w3.org/1999/xlink" xlink:href="#linearGradientF8FBFEEDF5FCDEEDFAD4E7F8E2E5E9" id="linearGradientF8FBFEEDF5FCDEEDFAD4E7F8E2E5E9_813516350" x1="0" y1="36.0" x2="0" y2="142.0" gradientUnits="userSpaceOnUse" xlink:type="simple" xlink:actuate="onLoad" xlink:show="other" /><linearGradient xmlns:xlink="http://www.w3.org/1999/xlink" xlink:href="#linearGradientF8FBFEEDF5FCDEEDFAD4E7F8E2E5E9" id="linearGradientF8FBFEEDF5FCDEEDFAD4E7F8E2E5E9_395702753" x1="0" y1="190.0" x2="0" y2="296.0" gradientUnits="userSpaceOnUse" xlink:type="simple" xlink:actuate="onLoad" xlink:show="other" /></defs></svg>
